<svg xmlns="http://www.w3.org/2000/svg" viewBox="0 0 486.33 475.51"><defs><style>.cls-1{fill:#bd1218;}.cls-2{fill:#fff;}</style></defs><g id="Layer_2" data-name="Layer 2"><g id="Layer_1-2" data-name="Layer 1"><path class="cls-1" d="M479.79,195.71l-9.43-35.19a6.33,6.33,0,0,0-6.13-4.68l-15.57.09A221.09,221.09,0,0,0,430,120.23l9-12.73a6.31,6.31,0,0,0-.31-7.7L415.33,71.89a6.31,6.31,0,0,0-7.54-1.65l-14.12,6.69h0a224.7,224.7,0,0,0-31.89-24.51s0,0,0,0l2.8-15.33A6.32,6.32,0,0,0,361,30.21l-33-15.4a6.33,6.33,0,0,0-7.53,1.7l-9.93,12a220.91,220.91,0,0,0-39.33-8.69L267.26,4.71A6.29,6.29,0,0,0,261.16,0H224.72a6.31,6.31,0,0,0-6.1,4.71L214.68,19.8a220.91,220.91,0,0,0-39.33,8.69l-9.93-12a6.33,6.33,0,0,0-7.53-1.7l-33,15.4a6.32,6.32,0,0,0-3.54,6.85l2.8,15.33s0,0,0,0A223.57,223.57,0,0,0,92.22,76.93h0L78.09,70.24a6.3,6.3,0,0,0-7.53,1.65L47.14,99.8a6.29,6.29,0,0,0-.31,7.7l9,12.73a221.14,221.14,0,0,0-18.63,35.7l-15.56-.09a6.32,6.32,0,0,0-6.13,4.68L6.1,195.71a6.3,6.3,0,0,0,3,7.12l13.56,7.72a224.7,224.7,0,0,0-2,29.76c0,4.26.13,8.48.36,12.68,4,3.39,10.38,8.81,12.46,10.55a84.82,84.82,0,0,1,7.91,8.52s-3-12.72,2.6-20.93,17.82-16.72,26.34-25c4.82-4.71,8.3-11.87,10.4-17.19a165.24,165.24,0,0,1,324.46,0c2.1,5.31,5.56,12.44,10.39,17.14,8.5,8.32,20.72,16.83,26.33,25s2.6,20.93,2.6,20.93a83.69,83.69,0,0,1,7.91-8.52c2.08-1.74,8.47-7.17,12.47-10.56.23-4.19.36-8.41.36-12.67a224.7,224.7,0,0,0-2-29.76l13.56-7.72a6.32,6.32,0,0,0,3-7.12"/><path class="cls-1" d="M160.83,461.32a70.29,70.29,0,0,1-10.56-.2,48.89,48.89,0,0,1-7.92-1.7q-1.72-.53-3.24-1.11a31.11,31.11,0,0,1-2.84-1.28c-1.79-.88-3.42-1.76-5-2.59-.81-.42-1.73-.87-2.74-1.35s-2.06-1-3.17-1.6c-2.21-1.11-4.56-2.26-6.72-3.3-1.08-.51-2.08-1.06-3-1.54l-2.43-1.3-2.26-1.18s1.76,1.32,6.09,4.24c2.22,1.38,5.1,3.13,8.75,5.28.46.26.92.55,1.41.82l1.51.8,3.25,1.7,3.57,1.85,1.9,1,2,.93a48.61,48.61,0,0,0,7.43,2.73c.55.16,1.08.3,1.61.42s1.06.2,1.57.29c1,.17,2,.31,3,.43,2,.24,3.9.42,6,.73l3.24.49q1.7.28,3.6.72c5.37,1.37,12.18,3.74,19,5.77,3.42.94,6.83,1.81,10,2.45a44.18,44.18,0,0,0,8.69.7,22.38,22.38,0,0,0,3.7-.45,30.61,30.61,0,0,0,3.73-1.13,41.83,41.83,0,0,0,7.23-3.57c.59-.36,1.16-.71,1.73-1.11s1.14-.83,1.69-1.25c1.12-.84,2.2-1.72,3.23-2.63a75.11,75.11,0,0,0,5.77-5.6c.43-.47.86-.94,1.27-1.41s.82-1,1.21-1.44q1.17-1.44,2.19-2.79c1.36-1.79,2.51-3.46,3.45-4.88,1.86-2.83,2.87-4.68,2.87-4.68l-3.45-.09-3.74-.1c-.7,0-1.44,0-2.2-.08l-2.35-.17-5-.38-2.54-.2-2.5-.31-4.7-.6-2.12-.27-1-.13-.91-.16c-4.92-.9-9.47,0-13.81,1.47a45.18,45.18,0,0,0-6.45,2.93c-1.07.59-2.11,1.13-3.15,1.73s-2.08,1.22-3.11,1.85c-4.13,2.51-8.23,5.33-12.18,7.36a45.87,45.87,0,0,1-5.89,2.64,26.8,26.8,0,0,1-2.87.87c-.48.11-1,.21-1.42.28s-.93.1-1.39.13"/><path class="cls-1" d="M110.68,435.4a72,72,0,0,1-10.19-2.71,45.14,45.14,0,0,1-7.29-3.53c-4.17-2.39-6.84-5.11-9.58-7.46s-7.07-6-10.78-9.06c-.93-.75-1.78-1.51-2.55-2.2l-2.06-1.83-1.91-1.68s1.39,1.69,4.91,5.55c1.83,1.86,4.21,4.24,7.24,7.2.75.75,1.57,1.48,2.45,2.25l2.75,2.43,3,2.63c.53.46,1.06.94,1.62,1.4l1.75,1.38a48.68,48.68,0,0,0,6.54,4.42c.49.28,1,.55,1.47.78s1,.45,1.45.65c1,.41,1.9.78,2.82,1.13,1.85.7,3.67,1.34,5.59,2.13.95.41,2,.79,3,1.24s2.16,1,3.33,1.57c2.46,1.25,5.13,3,8,4.68,1.45.87,2.92,1.78,4.42,2.71l2.26,1.41,2.31,1.31c1.54.86,3.09,1.72,4.61,2.53l2.28,1.18,1.11.56,1.13.49a45.53,45.53,0,0,0,8.26,2.8c.6.12,1.21.22,1.82.3s1.27.09,1.9.1a31.8,31.8,0,0,0,3.88-.19,38.34,38.34,0,0,0,7.88-1.71,59.11,59.11,0,0,0,7.67-3.27q1.83-.93,3.57-1.95c1.16-.67,2.27-1.36,3.36-2.11a90.53,90.53,0,0,0,10.39-8.26c2.48-2.27,3.91-3.89,3.91-3.89l-.9-.21-2.43-.68c-2.05-.6-4.89-1.35-8-2.3s-6.42-2.14-9.54-3.27l-8.16-3.22a24.11,24.11,0,0,0-6.87-1.87,26.87,26.87,0,0,0-3.47-.16,32.92,32.92,0,0,0-3.43.15c-4.58.43-9.31,1.88-13.89,3.28-2.31.73-4.61,1.52-6.9,2.26-1.13.38-2.27.75-3.39,1.09s-2.21.62-3.29.89c-4.34,1.06-8.51,1.68-12.16,1.06"/><path class="cls-1" d="M68.16,398.35a70.29,70.29,0,0,1-9.25-5,46.56,46.56,0,0,1-6.26-5.15c-3.48-3.31-5.44-6.58-7.55-9.52s-5.45-7.52-8.33-11.35c-.35-.49-.71-1-1-1.41l-.92-1.34-1.57-2.27-1.45-2.09s.24.49.79,1.56,1.4,2.73,2.66,5,3.09,5.12,5.34,8.71c.54.91,1.18,1.81,1.85,2.77s1.36,2,2.1,3,1.51,2.14,2.31,3.28c.41.57.81,1.15,1.24,1.73L49.45,388a49.75,49.75,0,0,0,5.32,5.84,24.59,24.59,0,0,0,2.5,2.08c.83.63,1.65,1.21,2.47,1.77,1.63,1.12,3.25,2.17,4.93,3.38.82.62,1.73,1.23,2.65,1.92s1.86,1.45,2.85,2.31,2.12,1.92,3.23,3l.83.84.88.84,1.77,1.74q1.82,1.78,3.66,3.68l1.85,1.89,1.94,1.82c1.29,1.21,2.59,2.41,3.87,3.55a48.47,48.47,0,0,0,3.85,3.23,44.29,44.29,0,0,0,7.35,4.68,18.39,18.39,0,0,0,3.52,1.27,31.52,31.52,0,0,0,3.8.75,37.46,37.46,0,0,0,4,.31,33,33,0,0,0,4.08-.12,59,59,0,0,0,8.21-1.33,60,60,0,0,0,7.71-2.31,90.82,90.82,0,0,0,12.05-5.51c1.47-.8,2.67-1.55,3.49-2.06l1.25-.81-.83-.42-1-.5-1.24-.72L137.25,415l-8.49-5.44c-2.69-1.93-5.22-3.72-7.15-5.09l-1.51-1.05c-.51-.34-1-.65-1.54-.94a24.73,24.73,0,0,0-6.5-2.43c-1.13-.27-2.23-.51-3.37-.67-4.55-.68-9.5-.37-14.28-.1-2.41.16-4.83.38-7.22.57-1.2.09-2.39.18-3.56.25s-2.29.08-3.41.08c-4.46,0-8.66-.37-12.06-1.84"/><path class="cls-1" d="M35.6,352.28a70.67,70.67,0,0,1-7.8-7.11l-.76-.83-.69-.85c-.45-.56-.87-1.11-1.27-1.65-.79-1.09-1.5-2.14-2.13-3.16s-1.19-2-1.7-3c-.25-.48-.49-.95-.72-1.42l-.6-1.4c-.76-1.85-1.4-3.59-2.06-5.28l-5.38-13c-1-2.2-1.68-4.25-2.25-5.72l-.9-2.37s.12.53.38,1.71c.14.58.33,1.32.55,2.24s.47,2,.87,3.26c.75,2.5,1.76,5.72,3.08,9.75.69,2,1.55,4.16,2.47,6.56s1.89,5,3.19,7.76a50,50,0,0,0,3.76,7,29.05,29.05,0,0,0,1.95,2.61c.67.81,1.32,1.57,2,2.31,1.32,1.48,2.64,2.89,4,4.47a64.59,64.59,0,0,1,4.35,5.41c.8,1.13,1.61,2.38,2.41,3.71.21.34.42.68.62,1l.65,1c.44.69.87,1.4,1.32,2.12.88,1.43,1.77,2.93,2.68,4.44.44.76.9,1.52,1.35,2.28l1.45,2.23c1,1.48,2,3,2.93,4.36a50.15,50.15,0,0,0,3,4.06,45.76,45.76,0,0,0,6,6.28,18.73,18.73,0,0,0,3.12,2.06A32.48,32.48,0,0,0,65,394.72,38.9,38.9,0,0,0,68.76,396a33.72,33.72,0,0,0,4,.85,63.29,63.29,0,0,0,16.32.22,91.6,91.6,0,0,0,13-2.5c1.62-.43,3-.88,3.88-1.18l1.42-.49-.7-.61-.82-.71-1-1-6-5.73c-2.23-2.35-4.67-4.9-7-7.3l-5.74-6.64c-.42-.47-.83-.92-1.23-1.38s-.84-.87-1.28-1.27a22.7,22.7,0,0,0-2.74-2.17,26.1,26.1,0,0,0-3-1.73c-1-.52-2-1-3.13-1.45-4.25-1.73-9.13-2.6-13.83-3.47-2.39-.42-4.8-.78-7.16-1.16-1.19-.2-2.36-.39-3.52-.6s-2.24-.47-3.34-.72c-4.34-1.05-8.31-2.43-11.28-4.66"/><path class="cls-1" d="M14.92,299.72a65.38,65.38,0,0,1-5.85-8.78c-.37-.67-.72-1.33-1-2s-.58-1.28-.84-1.91c-.51-1.24-.93-2.43-1.3-3.57a54.54,54.54,0,0,1-1.57-6.34c-.29-2-.48-3.82-.7-5.62s-.61-4.09-1-6.52-.71-5-1.06-7.39c-.18-1.19-.35-2.32-.51-3.34-.08-.51-.15-1-.22-1.46s-.1-.88-.15-1.26C.46,250,.35,249,.35,249s0,.55,0,1.75c0,.6,0,1.36,0,2.3s.08,2,.13,3.35.15,2.8.23,4.49c.06.85.11,1.75.16,2.69,0,.48.07,1,.1,1.47s.11,1,.16,1.54q.36,3.15.81,7c.16,1.27.31,2.6.51,4l.75,4.3a46.52,46.52,0,0,0,2,7.66,54.64,54.64,0,0,0,2.65,5.71c.93,1.76,1.85,3.45,2.79,5.3a53.76,53.76,0,0,1,2.94,6.3c.51,1.29,1,2.7,1.45,4.19s1,3,1.54,4.65c1.05,3.22,1.95,6.69,3.2,10,.59,1.68,1.19,3.34,1.79,5,.32.8.62,1.6.93,2.38s.68,1.53,1,2.26a45,45,0,0,0,4.35,7.56,20.55,20.55,0,0,0,2.56,2.74,30.37,30.37,0,0,0,3,2.41,37.09,37.09,0,0,0,3.38,2.12c.58.32,1.18.63,1.79.93s1.26.57,1.89.84a59.28,59.28,0,0,0,7.9,2.59c1.33.35,2.66.64,4,.89s2.66.44,3.94.61a90.47,90.47,0,0,0,13.23.65c1.67,0,3.1-.16,4-.23l1.49-.14s-.2-.27-.54-.76c-.18-.24-.38-.54-.63-.88l-.78-1.21c-1.15-1.8-2.74-4.27-4.48-7l-5-8.73-4-7.82c-.6-1.1-1.14-2.18-1.81-3.17a24.18,24.18,0,0,0-2.14-2.76,35.93,35.93,0,0,0-5.19-4.53,44.92,44.92,0,0,0-6.06-3.62c-1.07-.55-2.17-1.07-3.28-1.57s-2.18-1-3.28-1.49c-2.21-1-4.46-1.9-6.66-2.84S26.71,308,24.76,307c-4-2.06-7.46-4.36-9.84-7.23"/><path class="cls-1" d="M7.43,243.81a52.82,52.82,0,0,1-3.68-9.88,42.69,42.69,0,0,1-.9-4.21c-.21-1.32-.38-2.58-.45-3.77A63.32,63.32,0,0,1,3,213.8c.4-3.6.79-9.26,1.25-14s.91-8.64.91-8.64-.63,2.11-1.68,7.23A191.51,191.51,0,0,0,.11,223.72a41.72,41.72,0,0,0,1.34,14.05c.24,1,.48,1.9.74,2.85s.55,1.93.81,2.94a53.76,53.76,0,0,1,1.3,6.79q.12,1,.21,2.13c.09.74.17,1.5.25,2.27.14,1.56.26,3.19.36,4.87s.17,3.42.26,5.18.3,3.53.46,5.29.33,3.52.52,5.24l.15,1.27c.06.43.14.84.21,1.26q.23,1.25.45,2.43a44.23,44.23,0,0,0,2.4,8.39,28.13,28.13,0,0,0,4.2,6.34,35.16,35.16,0,0,0,6,5.47,59.09,59.09,0,0,0,7,4.41c1.21.65,2.42,1.26,3.63,1.82s2.49,1.06,3.71,1.52A90.93,90.93,0,0,0,46.77,312c3.36.7,5.48.95,5.48.95l-.34-.86c-.2-.56-.57-1.35-.88-2.37-.69-2-1.63-4.81-2.67-7.87-.27-.76-.48-1.56-.72-2.37s-.46-1.62-.69-2.44c-.47-1.64-.94-3.28-1.39-4.88-.24-.79-.41-1.59-.58-2.36s-.36-1.52-.52-2.25c-.34-1.44-.65-2.78-.91-3.93A28.83,28.83,0,0,0,41.12,277a30.85,30.85,0,0,0-4-5.65,64,64,0,0,0-10.66-9.5c-3.8-2.94-7.78-5.75-11.25-8.69-.43-.36-.86-.73-1.27-1.1s-.79-.74-1.17-1.12q-1.12-1.12-2.13-2.28a22.9,22.9,0,0,1-3.22-4.82"/><path class="cls-1" d="M155.69,378.9l1.58,1c.54.34,1.09.69,1.68,1a24.75,24.75,0,0,1,3.61,2.58,25,25,0,0,1,1.91,1.85c.67.66,1.36,1.39,2.07,2.23s1.44,1.79,2.2,2.87c.38.54.76,1.11,1.16,1.71s.81,1.2,1.24,1.84c1.57,2.35,2.54,5.84,3.51,9.78s2,8.29,3.37,12.68a40.58,40.58,0,0,0,6.13,12,22.8,22.8,0,0,0,4.9,4.49,18.08,18.08,0,0,0,6.39,2.83l3.87.89,2.22.51,1.16.26,1.19.22,4.92.88,2.46.44,1.21.21,1.2.16,8.12,1c1,.16,1.9.17,2.48.23l.91.07s-.84-1.94-2.24-4.95-3.34-7.25-5.53-11.58c-.55-1.08-1.12-2.17-1.7-3.26L214,417.62c-1.2-2.22-2.43-4.36-3.72-6.31-.64-1-1.3-1.9-2-2.8s-1.32-1.78-2-2.57a17.63,17.63,0,0,0-4.28-3.73,25.67,25.67,0,0,0-5.59-2.45c-.54-.17-1.09-.34-1.65-.49s-1.13-.31-1.7-.5c-1.14-.36-2.31-.7-3.49-1l-3.57-1c-1.16-.39-2.3-.79-3.41-1.19a28.6,28.6,0,0,1-5.9-2.68,28.19,28.19,0,0,1-6.75-6.06,27.85,27.85,0,0,0-3.08-3.06c-.29-.24-.6-.49-.93-.73s-.65-.52-1-.78a23.18,23.18,0,0,0-2.37-1.54c-7-4-11.54-7.1-14.46-9l-1.9-1.2-1.27-.87-1-.65s.45.47,1.2,1.22l.61.62.73.66,1.7,1.52c1.22,1.06,2.53,2.27,3.84,3.31s2.62,1.93,3.66,2.59"/><path class="cls-1" d="M125.25,354.1l1.31,1.35.67.7.72.69a24.63,24.63,0,0,1,2.89,3.38,23.06,23.06,0,0,1,1.43,2.25c.5.79,1,1.67,1.49,2.66s1,2.08,1.45,3.31,1,2.58,1.5,4a18.26,18.26,0,0,1,.91,4.65c.08.88.12,1.8.14,2.75s0,1.94.05,2.94c.05,4-.07,8.53.25,13.14a40.93,40.93,0,0,0,3.09,13.16,24.27,24.27,0,0,0,3.68,5.54,17.09,17.09,0,0,0,5.54,4.26c4.11,2.19,10.93,5.43,16.85,7.81l4.19,1.65c1.29.5,2.44,1,3.44,1.31l3.22,1.09s-.34-2.1-1-5.36c-.33-1.64-.71-3.57-1.14-5.71s-.93-4.46-1.47-6.83-1.15-4.77-1.79-7.2-1.31-4.83-2.08-7.05c-1.6-4.36-3.33-8.39-5.84-10.81a13.37,13.37,0,0,0-1-.92c-.36-.33-.74-.65-1.15-1a29.46,29.46,0,0,0-2.66-1.83c-.95-.6-2-1.16-3-1.74s-2.08-1.25-3.15-1.86l-3.22-1.82c-1.07-.62-2.07-1.31-3.05-2s-1.91-1.32-2.78-2c-.44-.32-.86-.64-1.26-1s-.73-.7-1.07-1.06a25.42,25.42,0,0,1-3-3.81c-.4-.62-.78-1.19-1.11-1.83s-.65-1.24-1-1.86a29.17,29.17,0,0,0-5.73-7.71c-5.86-5.54-9.54-9.63-11.93-12.17L118,343.68c-.43-.46-.76-.85-1-1.14l-.79-.87.87,1.48c.14.22.29.48.45.75l.56.82,1.29,1.87c.93,1.32,1.92,2.8,3,4.13s2.08,2.49,2.93,3.38"/><path class="cls-1" d="M101.55,322.82l1,1.61.48.84.54.84a24.62,24.62,0,0,1,2.86,6.48,28.5,28.5,0,0,1,.82,2.94c.24,1.08.45,2.26.63,3.56s.32,2.73.51,4.26a19,19,0,0,1-.23,4.73c-.13.87-.3,1.77-.5,2.71s-.43,1.89-.65,2.87c-.91,3.9-2.09,8.27-2.86,12.82A40.91,40.91,0,0,0,104,380a23.56,23.56,0,0,0,2.26,6.25,20.93,20.93,0,0,0,1.86,2.9,22.38,22.38,0,0,0,2.51,2.56l3,2.6c.56.47,1.13,1,1.73,1.48l1.89,1.48,3.93,3.09c.66.51,1.3,1.05,2,1.52s1.33,1,2,1.42l3.66,2.6,1.61,1.15c.5.35,1,.65,1.44.94l2.86,1.83s.17-2.12.32-5.45.37-7.92.45-12.8c0-2.44,0-4.93,0-7.41s-.14-5-.36-7.35c-.5-4.63-1.25-8.94-3.11-11.9a13.85,13.85,0,0,0-.79-1.15c-.28-.39-.58-.8-.9-1.2a29.33,29.33,0,0,0-2.15-2.41c-.79-.81-1.65-1.6-2.53-2.41s-1.73-1.71-2.63-2.56l-2.7-2.53c-.89-.86-1.69-1.77-2.5-2.63s-1.54-1.73-2.24-2.57c-.34-.43-.68-.84-1-1.26s-.55-.86-.8-1.27a26.52,26.52,0,0,1-2-4.43,20.06,20.06,0,0,1-.65-2l-.51-2a29.2,29.2,0,0,0-3.74-8.84c-4.38-6.76-7-11.6-8.69-14.63L97,311c-.33-.54-.54-1-.73-1.36-.39-.7-.56-1-.56-1s.18.63.49,1.64c.14.51.36,1.1.61,1.75l.81,2.13c.59,1.5,1.19,3.17,1.88,4.69s1.44,2.92,2,4"/><path class="cls-1" d="M86,286.87l.52,1.79c.16.62.42,1.22.62,1.87a24.67,24.67,0,0,1,1,4.32c.13.82.16,1.71.24,2.64a29.43,29.43,0,0,1,.09,3c0,1.11-.11,2.3-.25,3.61-.08.66-.16,1.34-.25,2.05s-.16,1.43-.26,2.2a19.16,19.16,0,0,1-1.35,4.54c-.66,1.62-1.57,3.36-2.45,5.13-1.8,3.58-4,7.54-5.83,11.78a40.93,40.93,0,0,0-3.3,13.1,23.53,23.53,0,0,0,.72,6.61,19.53,19.53,0,0,0,1.12,3.25,21.7,21.7,0,0,0,1.83,3.08l2.31,3.24c.42.59.85,1.23,1.33,1.85s1,1.25,1.48,1.88l3.09,3.94c.52.64,1,1.33,1.56,1.94s1.07,1.25,1.6,1.84L92.74,374,94,375.47c.41.45.82.86,1.18,1.25l2.35,2.46s.66-2,1.6-5.22,2.23-7.61,3.46-12.33c.61-2.36,1.19-4.78,1.72-7.21s1-4.91,1.39-7.23c.6-4.61.89-9-.21-12.3-.14-.42-.31-.86-.5-1.29s-.36-.92-.58-1.38a31.79,31.79,0,0,0-1.52-2.85c-.58-1-1.22-1.95-1.89-2.95s-1.27-2.06-1.94-3.09l-2-3.1a18,18,0,0,1-.93-1.57l-.87-1.56c-.57-1-1.1-2.05-1.56-3-.24-.5-.46-1-.66-1.45s-.33-1-.47-1.43a25.82,25.82,0,0,1-.93-4.78c-.07-.72-.12-1.43-.15-2.12v-2.11a29.76,29.76,0,0,0-.29-4.32c-.06-.38-.13-.77-.22-1.17s-.18-.8-.27-1.24a23.37,23.37,0,0,0-.74-2.72L89,290c-.15-.45-.31-.87-.45-1.29s-.25-.84-.37-1.25c-.48-1.63-.92-3.11-1.34-4.46l-.6-1.91c-.18-.6-.31-1.18-.46-1.73-.29-1.09-.54-2.05-.77-2.89-.46-1.68-.84-2.86-1-3.63l-.29-1.14s0,.17,0,.46,0,.73.07,1.25c.12,1,.28,2.5.46,4.1.1.81.2,1.65.31,2.49l.17,1.28.24,1.24c.34,1.63.68,3.17,1,4.35"/><path class="cls-1" d="M79.45,248.21a40.31,40.31,0,0,1,.17,8.29c-.11.83-.17,1.69-.34,2.62a26.37,26.37,0,0,1-.67,3c-.3,1.08-.66,2.22-1.13,3.46s-.88,2.56-1.47,4c-2.24,5.29-8.93,11.16-14.47,18.52a52.49,52.49,0,0,0-3.69,5.71c-.55,1-1.06,2-1.52,3.06A22.15,22.15,0,0,0,55.19,300a24.6,24.6,0,0,0-.9,6.59,17.23,17.23,0,0,0,.33,3.42,22.75,22.75,0,0,0,1,3.43c.88,2.16,1.9,5,3.32,8s2.71,6.18,4.23,9l2.05,4c.31.62.61,1.2.9,1.75l.85,1.49,1.7,3s1.12-1.82,2.78-4.7c.83-1.44,1.81-3.15,2.88-5s2.26-4,3.41-6.12,2.31-4.37,3.38-6.59,2.2-4.51,3.08-6.69c.44-1.09.84-2.17,1.18-3.22.17-.52.33-1,.47-1.55s.31-1,.44-1.54a17.76,17.76,0,0,0,.65-5.67,31.92,31.92,0,0,0-1.21-6c-.33-1.08-.71-2.18-1.13-3.31s-.74-2.3-1.15-3.46a57.18,57.18,0,0,1-3.44-13.33,26.18,26.18,0,0,1,.28-4.86c.11-.73.23-1.42.37-2.11.07-.34.13-.68.2-1s.17-.68.26-1a30.25,30.25,0,0,0,.79-4.27,35.88,35.88,0,0,0,0-5.29c-.14-2-.3-3.86-.45-5.56q0-.33-.06-.63c0-.21,0-.41,0-.62,0-.41,0-.81,0-1.2,0-.78-.06-1.51-.09-2.22-.06-1.42-.13-2.68-.2-3.82s-.06-2.13-.11-3c-.08-3.49-.14-5-.14-5s-.12.65-.3,1.69-.39,2.5-.57,4.11-.3,3.39-.39,5.07-.15,3.26-.12,4.49"/><path class="cls-1" d="M82.24,209a51.2,51.2,0,0,1-1.79,8.08c-1.07,3.13-3,6.79-6.63,11.84a20.47,20.47,0,0,1-3.29,3.42c-1.34,1.12-2.87,2.25-4.51,3.42-3.32,2.35-7.09,4.86-10.54,7.77a55.29,55.29,0,0,0-5,4.69,29.68,29.68,0,0,0-2.2,2.6,31.81,31.81,0,0,0-1.81,2.8,24.13,24.13,0,0,0-2.5,6.2,15.28,15.28,0,0,0-.44,3.39,21.92,21.92,0,0,0,.16,3.59c.15,1.15.32,2.49.5,3.94s.53,3,.81,4.6.59,3.27.88,4.92.74,3.26,1.08,4.82c.72,3.1,1.34,5.94,2,7.94l.94,3.27s1.52-1.49,3.84-3.89c1.15-1.2,2.51-2.62,4-4.2s3.14-3.31,4.79-5.12,3.3-3.69,4.87-5.59l2.37-2.88c.77-1,1.51-1.92,2.21-2.88a41.09,41.09,0,0,0,3.51-5.62,18.2,18.2,0,0,0,2-5.36,17.38,17.38,0,0,0,.24-2.88c0-1,0-2.11,0-3.23s-.14-2.29-.26-3.49-.3-2.41-.36-3.65c-.18-2.46-.41-5-.53-7.32a33.25,33.25,0,0,1,.36-6.5,29.4,29.4,0,0,1,3.18-8.52,27.92,27.92,0,0,0,3-9.11c1.21-8,2.4-13.32,3.12-16.73.37-1.7.63-2.91.79-3.7l.23-1.15s-.25.6-.67,1.58-1,2.33-1.54,3.83A65.23,65.23,0,0,0,82.24,209"/><path class="cls-1" d="M282.8,475.49a45,45,0,0,0,8.7-.7c3.18-.64,6.59-1.52,10-2.45,6.8-2,13.62-4.4,19-5.76,1.27-.31,2.47-.54,3.6-.73l3.24-.5c2.05-.3,4-.48,6-.72,1-.13,2-.26,3-.43.51-.09,1-.17,1.57-.29s1.06-.26,1.61-.41a51.68,51.68,0,0,0,7.42-2.74l2-.93,1.9-1L354.4,457l3.25-1.71,1.51-.8c.49-.27.95-.55,1.41-.82,3.65-2.14,6.53-3.89,8.75-5.27,4.33-2.92,6.08-4.24,6.08-4.24l-2.25,1.18-2.43,1.3c-.92.48-1.92,1-3,1.53-2.15,1.05-4.5,2.2-6.71,3.31-1.11.55-2.16,1.13-3.17,1.6s-1.94.93-2.74,1.35c-1.61.83-3.24,1.71-5,2.6-.9.42-1.82.9-2.84,1.27s-2.09.76-3.24,1.11a47.85,47.85,0,0,1-7.92,1.7,70.39,70.39,0,0,1-10.57.2c-.45,0-.92-.07-1.38-.13s-.94-.17-1.42-.28c-.95-.23-1.91-.52-2.88-.86a47.82,47.82,0,0,1-5.87-2.65c-4-2-8.06-4.85-12.19-7.36-1-.63-2.07-1.25-3.11-1.85s-2.09-1.14-3.15-1.74a46.25,46.25,0,0,0-6.45-2.92c-4.34-1.45-8.89-2.37-13.81-1.47l-.91.16-1,.13-2.12.27-4.7.59-2.5.32-2.54.2-5,.37-2.36.19c-.76.06-1.5,0-2.2.07l-3.74.1-3.46.08s1,1.86,2.88,4.7c.94,1.41,2.09,3.07,3.45,4.87q1,1.36,2.19,2.79c.39.48.79,1,1.21,1.44s.83.94,1.27,1.41a78.81,78.81,0,0,0,5.76,5.6c1.05.9,2.12,1.79,3.23,2.64.56.42,1.13.83,1.7,1.24s1.14.75,1.72,1.11a42.28,42.28,0,0,0,7.24,3.57,32.48,32.48,0,0,0,3.73,1.13,23.52,23.52,0,0,0,3.69.45"/><path class="cls-1" d="M337.61,459.36a45.79,45.79,0,0,0,8.26-2.8l1.13-.49,1.12-.56,2.27-1.18c1.52-.81,3.06-1.67,4.61-2.53l2.31-1.31,2.26-1.41q2.25-1.4,4.42-2.72c2.92-1.69,5.59-3.41,8.05-4.68,1.17-.59,2.27-1.11,3.33-1.56s2.08-.83,3-1.24c1.92-.79,3.74-1.42,5.59-2.13.92-.35,1.86-.72,2.82-1.13.47-.2,1-.42,1.45-.65s1-.51,1.47-.78a49.65,49.65,0,0,0,6.54-4.42l1.75-1.38c.56-.46,1.09-.94,1.62-1.39l3-2.64,2.75-2.43c.87-.77,1.71-1.51,2.45-2.26,3-2.95,5.41-5.32,7.24-7.19,3.52-3.86,4.91-5.55,4.91-5.55l-1.91,1.68L416,410.44c-.77.69-1.62,1.45-2.55,2.2-3.71,3-8,6.75-10.77,9.05s-5.42,5.08-9.6,7.47a44.6,44.6,0,0,1-7.28,3.53,70.65,70.65,0,0,1-10.19,2.71c-3.65.62-7.83,0-12.16-1.06-1.08-.27-2.18-.56-3.29-.89s-2.26-.71-3.4-1.09c-2.28-.74-4.58-1.53-6.89-2.26-4.58-1.4-9.31-2.85-13.89-3.28-1.16-.11-2.29-.15-3.43-.15a26.79,26.79,0,0,0-3.47.16,23.79,23.79,0,0,0-6.87,1.87l-8.17,3.22c-3.11,1.13-6.47,2.21-9.53,3.27s-5.94,1.7-8,2.3l-2.43.69-.9.2s1.43,1.62,3.91,3.89a90.53,90.53,0,0,0,10.39,8.26c1.09.75,2.2,1.44,3.36,2.11s2.34,1.33,3.57,1.95a58.52,58.52,0,0,0,7.67,3.27,38.34,38.34,0,0,0,7.88,1.71,31.7,31.7,0,0,0,3.88.19c.64,0,1.27-.05,1.89-.1s1.23-.18,1.83-.3"/><path class="cls-1" d="M386.93,430.62a45.16,45.16,0,0,0,7.34-4.68c1.32-.95,2.57-2.1,3.86-3.23s2.58-2.35,3.87-3.56l1.94-1.81,1.85-1.9c1.24-1.26,2.45-2.5,3.66-3.68l1.77-1.74.88-.84c.28-.29.55-.57.83-.84,1.11-1.11,2.18-2.13,3.22-3s1.94-1.62,2.86-2.31,1.82-1.3,2.65-1.91c1.68-1.22,3.29-2.27,4.93-3.39.82-.56,1.63-1.14,2.47-1.77a24.59,24.59,0,0,0,2.5-2.08,48.12,48.12,0,0,0,5.32-5.84l1.37-1.76c.43-.58.83-1.17,1.24-1.73.81-1.14,1.57-2.23,2.31-3.28l2.11-3c.66-1,1.3-1.88,1.84-2.78,2.25-3.59,4-6.47,5.33-8.71s2.12-3.94,2.67-5l.79-1.56-1.45,2.08-1.57,2.27-.92,1.34c-.33.46-.68.92-1,1.41-2.89,3.83-6.16,8.45-8.33,11.35s-4.07,6.21-7.56,9.52a45.8,45.8,0,0,1-6.25,5.15,70.29,70.29,0,0,1-9.25,5c-3.4,1.47-7.6,1.86-12.06,1.85-1.12,0-2.25,0-3.41-.09l-3.55-.25c-2.4-.19-4.82-.41-7.23-.57-4.78-.27-9.73-.58-14.28.1-1.14.16-2.24.41-3.37.67a25.72,25.72,0,0,0-3.32,1,24.58,24.58,0,0,0-3.18,1.46c-.51.29-1,.6-1.54.93l-1.51,1.06c-1.93,1.37-4.46,3.16-7.16,5.09L349.08,415l-7.21,4.14-1.24.71c-.38.21-.7.37-1,.51l-.82.42,1.25.82c.82.5,2,1.25,3.49,2.05a90.82,90.82,0,0,0,12.05,5.51,60.36,60.36,0,0,0,7.7,2.31,59.41,59.41,0,0,0,8.22,1.33,31.15,31.15,0,0,0,4.08.12,36.86,36.86,0,0,0,4-.32,31.29,31.29,0,0,0,3.81-.74,19.07,19.07,0,0,0,3.52-1.26"/><path class="cls-1" d="M428,391a46.38,46.38,0,0,0,6-6.28c1.05-1.23,2-2.64,3-4.05s1.95-2.89,2.92-4.37l1.46-2.23,1.36-2.28c.89-1.51,1.78-3,2.67-4.44l1.31-2.12.66-1,.61-1c.81-1.33,1.62-2.58,2.42-3.71a63,63,0,0,1,4.35-5.41c1.35-1.58,2.67-3,4-4.47.65-.74,1.32-1.5,2-2.31a29.05,29.05,0,0,0,1.95-2.61,51,51,0,0,0,3.77-7c1.29-2.75,2.24-5.38,3.18-7.76s1.78-4.56,2.47-6.57c1.32-4,2.32-7.25,3.08-9.74.4-1.25.64-2.35.87-3.26l.54-2.25c.27-1.17.39-1.71.39-1.71s-.34.91-.9,2.38-1.29,3.52-2.25,5.72l-5.38,13c-.67,1.69-1.3,3.43-2.06,5.28l-.6,1.4c-.23.47-.47.94-.72,1.42-.51,1-1.07,2-1.7,3s-1.34,2.07-2.13,3.16c-.4.54-.82,1.09-1.27,1.65l-.69.85-.76.83a70.67,70.67,0,0,1-7.8,7.11c-3,2.23-7,3.61-11.28,4.66-1.09.25-2.19.5-3.34.72s-2.33.4-3.52.6c-2.36.38-4.77.74-7.15,1.16-4.71.87-9.59,1.74-13.84,3.48-1.08.42-2.09.92-3.12,1.44a24.15,24.15,0,0,0-3,1.74,22.5,22.5,0,0,0-2.75,2.16c-.43.41-.85.83-1.27,1.27l-1.22,1.38-5.76,6.64-7,7.3-6,5.73-1,1c-.31.28-.59.52-.82.71l-.7.61,1.42.49c.9.3,2.26.75,3.87,1.18a92.06,92.06,0,0,0,13,2.5,60.55,60.55,0,0,0,8,.42,59.34,59.34,0,0,0,8.29-.64,33.3,33.3,0,0,0,4-.85,38.9,38.9,0,0,0,3.78-1.25,32.48,32.48,0,0,0,3.53-1.62A18.73,18.73,0,0,0,428,391"/><path class="cls-1" d="M458.56,342.84a45.68,45.68,0,0,0,4.35-7.56c.34-.74.72-1.47,1-2.26s.61-1.58.93-2.38c.61-1.62,1.2-3.28,1.79-5,1.24-3.32,2.15-6.79,3.2-10,.5-1.61,1-3.17,1.54-4.65s.94-2.9,1.45-4.19a53.76,53.76,0,0,1,2.94-6.3c.94-1.85,1.87-3.54,2.79-5.3a54.64,54.64,0,0,0,2.65-5.71,46.52,46.52,0,0,0,2-7.66l.75-4.3c.19-1.39.35-2.71.51-4,.3-2.54.56-4.86.81-7,.05-.53.11-1,.16-1.54s.07-1,.09-1.47c.06-.94.11-1.84.17-2.69.08-1.69.16-3.18.22-4.49s.1-2.41.14-3.35,0-1.7,0-2.3c0-1.2,0-1.75,0-1.75s-.11,1-.29,2.52c-.05.39-.1.82-.15,1.28s-.14.94-.22,1.45c-.16,1-.33,2.15-.51,3.34-.35,2.36-.73,4.95-1.06,7.39s-.8,4.73-1,6.52-.41,3.64-.7,5.62a54.54,54.54,0,0,1-1.57,6.34c-.37,1.14-.79,2.33-1.3,3.57-.26.63-.52,1.26-.84,1.91s-.67,1.3-1,2a66,66,0,0,1-5.85,8.77c-2.38,2.87-5.87,5.17-9.84,7.23-1.95,1-4.17,2-6.36,2.92s-4.45,1.86-6.66,2.83c-1.1.49-2.2,1-3.28,1.5s-2.21,1-3.28,1.57a44.31,44.31,0,0,0-6.06,3.62,35.93,35.93,0,0,0-5.19,4.53,24.63,24.63,0,0,0-2.15,2.77c-.66,1-1.2,2.06-1.8,3.16-1.08,2.1-2.49,4.86-4,7.82l-5,8.73c-1.74,2.73-3.33,5.2-4.48,7l-.78,1.21c-.25.34-.46.64-.63.89l-.54.75,1.49.14c.95.07,2.38.2,4.05.23a90.34,90.34,0,0,0,13.22-.65c1.29-.17,2.65-.34,3.95-.61s2.63-.55,4-.89a59.28,59.28,0,0,0,7.9-2.59c.63-.26,1.28-.54,1.89-.84s1.21-.61,1.79-.93A37.09,37.09,0,0,0,453,348a30.37,30.37,0,0,0,3-2.41,20.55,20.55,0,0,0,2.56-2.74"/><path class="cls-1" d="M476.76,288.67a43.31,43.31,0,0,0,2.39-8.37c.16-.8.32-1.61.46-2.44.07-.42.15-.83.21-1.26l.15-1.27c.19-1.72.36-3.47.53-5.24l.45-5.29c.1-1.76.18-3.49.26-5.17s.22-3.33.36-4.88c.07-.77.16-1.53.25-2.27s.13-1.44.21-2.13a52.36,52.36,0,0,1,1.3-6.79c.26-1,.53-2,.8-2.94s.51-1.89.76-2.85a41.75,41.75,0,0,0,1.33-14.05,191.51,191.51,0,0,0-3.36-25.36c-1.05-5.12-1.68-7.23-1.68-7.23s.46,3.87.9,8.64.87,10.43,1.26,14a63.25,63.25,0,0,1,.59,12.14c-.08,1.2-.24,2.45-.45,3.78a42.69,42.69,0,0,1-.9,4.21,51.9,51.9,0,0,1-3.69,9.87,22.33,22.33,0,0,1-3.22,4.83c-.65.77-1.37,1.53-2.13,2.28-.37.38-.76.75-1.16,1.12s-.84.74-1.27,1.1c-3.47,2.94-7.45,5.75-11.25,8.69a64.39,64.39,0,0,0-10.66,9.5,31,31,0,0,0-4,5.65,28.83,28.83,0,0,0-2.43,6.69c-.27,1.15-.57,2.48-.91,3.93-.16.73-.34,1.47-.51,2.25s-.35,1.57-.59,2.37c-.46,1.59-.92,3.24-1.39,4.87-.23.82-.47,1.64-.7,2.44s-.44,1.61-.71,2.37c-1,3.07-2,5.85-2.67,7.87-.32,1-.68,1.81-.89,2.37l-.33.86s2.12-.25,5.48-1a89,89,0,0,0,12.67-3.79c1.22-.47,2.46-1,3.71-1.52s2.42-1.17,3.63-1.82a59.09,59.09,0,0,0,7-4.41,34.38,34.38,0,0,0,6-5.47,27.64,27.64,0,0,0,4.2-6.35"/><path class="cls-1" d="M284.35,402.21a17.48,17.48,0,0,0-4.29,3.73c-.68.79-1.35,1.65-2,2.57s-1.32,1.81-2,2.8c-1.28,1.95-2.52,4.1-3.73,6.31L270.62,421c-.58,1.09-1.14,2.18-1.69,3.26-2.2,4.33-4.14,8.5-5.54,11.58s-2.24,4.95-2.24,4.95l.91-.07c.58-.06,1.44-.07,2.48-.23l8.12-1,1.2-.16,1.21-.21,2.46-.44,4.92-.88,1.19-.21,1.16-.27,2.21-.51,3.88-.89a18.08,18.08,0,0,0,6.39-2.83,23,23,0,0,0,4.89-4.49,40.11,40.11,0,0,0,6.13-12c1.42-4.39,2.38-8.81,3.38-12.68s1.94-7.43,3.51-9.78l1.25-1.84c.39-.6.77-1.17,1.15-1.71.76-1.08,1.49-2,2.2-2.87s1.4-1.57,2.07-2.23a24,24,0,0,1,5.53-4.44c.58-.33,1.13-.68,1.67-1l1.58-1c1-.67,2.32-1.59,3.65-2.59s2.64-2.24,3.85-3.31c.6-.54,1.17-1.05,1.7-1.51l.73-.67.62-.62,1.19-1.23-1,.65-1.28.88-1.89,1.2c-2.92,1.91-7.46,5-14.46,9a25,25,0,0,0-2.37,1.55c-.35.26-.68.52-1,.78s-.64.49-.94.74a28.5,28.5,0,0,0-3.07,3,27.81,27.81,0,0,1-6.75,6.07,28.6,28.6,0,0,1-5.9,2.68c-1.11.4-2.25.8-3.41,1.19s-2.38.65-3.56,1-2.36.67-3.5,1c-.57.2-1.14.34-1.7.5s-1.11.32-1.65.49a25.36,25.36,0,0,0-5.58,2.45"/><path class="cls-1" d="M321.57,387.8c-2.51,2.42-4.25,6.46-5.84,10.81-.77,2.22-1.46,4.61-2.08,7.05s-1.26,4.81-1.8,7.2-1,4.69-1.46,6.83-.81,4.08-1.14,5.71c-.65,3.25-1,5.36-1,5.36l3.23-1.09c1-.31,2.15-.81,3.44-1.31l4.19-1.65c5.92-2.38,12.74-5.62,16.85-7.81A23.07,23.07,0,0,0,339,417a21.49,21.49,0,0,0,2.48-2.37,23.64,23.64,0,0,0,3.68-5.54,40.94,40.94,0,0,0,3.1-13.16c.32-4.61.2-9.13.25-13.14,0-1,0-2,.05-2.94s.07-1.87.14-2.75a19.18,19.18,0,0,1,.9-4.65l1.5-4c.49-1.23,1-2.33,1.46-3.31s1-1.87,1.49-2.67.95-1.57,1.42-2.24a25.37,25.37,0,0,1,2.9-3.38l.72-.69.67-.71c.45-.45.88-.9,1.31-1.34.84-.89,1.87-2.09,2.94-3.39s2-2.8,3-4.12c.46-.66.9-1.3,1.29-1.88.2-.28.38-.56.56-.81l.44-.75c.55-.91.88-1.48.88-1.48l-.79.87c-.27.29-.6.68-1,1.14s-.95,1-1.56,1.62c-2.39,2.55-6.07,6.64-11.93,12.18a29.23,29.23,0,0,0-5.74,7.71c-.32.62-.64,1.24-1,1.86s-.72,1.22-1.11,1.83a26.66,26.66,0,0,1-3,3.82c-.33.35-.7.7-1.08,1.05s-.81.66-1.25,1c-.86.66-1.8,1.31-2.78,2s-2,1.34-3.05,2l-3.22,1.82c-1.07.61-2.13,1.23-3.15,1.86s-2.07,1.14-3,1.74a29.66,29.66,0,0,0-2.67,1.83c-.4.31-.78.63-1.14.95s-.72.61-1,.93"/><path class="cls-1" d="M354.35,364.91c-1.85,3-2.61,7.28-3.11,11.9-.23,2.34-.33,4.83-.36,7.35s-.07,5,0,7.41c.08,4.88.32,9.52.45,12.8s.32,5.45.32,5.45l2.86-1.84c.44-.28.93-.58,1.44-.94l1.61-1.14,3.66-2.6,2-1.42c.68-.47,1.31-1,2-1.52l3.93-3.09,1.89-1.48c.61-.5,1.17-1,1.73-1.48,1.1-1,2.11-1.84,3-2.6a22.38,22.38,0,0,0,2.51-2.56,21.27,21.27,0,0,0,1.86-2.9,23.79,23.79,0,0,0,2.26-6.25,40.91,40.91,0,0,0-.11-13.52c-.77-4.55-2-8.92-2.86-12.82-.22-1-.44-2-.64-2.87s-.38-1.84-.51-2.7a18.62,18.62,0,0,1-.23-4.74c.19-1.53.36-2.94.51-4.26s.39-2.48.63-3.56a28.5,28.5,0,0,1,.82-2.94c.27-.91.54-1.75.85-2.52a25.16,25.16,0,0,1,2-4l.54-.84.48-.84.95-1.61c.61-1.07,1.32-2.48,2.05-4s1.29-3.2,1.88-4.7l.81-2.13c.25-.65.47-1.24.61-1.75l.5-1.64s-.18.32-.56,1c-.2.35-.41.81-.74,1.35l-1.13,1.94c-1.7,3-4.31,7.87-8.68,14.63a28.91,28.91,0,0,0-3.75,8.84l-.51,2c-.17.69-.41,1.34-.65,2a25.74,25.74,0,0,1-2,4.42c-.25.42-.51.85-.8,1.28s-.64.83-1,1.26c-.69.84-1.45,1.7-2.25,2.57s-1.6,1.78-2.49,2.63-1.8,1.69-2.71,2.53-1.77,1.7-2.62,2.55-1.74,1.62-2.53,2.42a31.07,31.07,0,0,0-2.15,2.41c-.32.4-.61.81-.9,1.2s-.55.77-.79,1.15"/><path class="cls-1" d="M380.81,334.89c-1.1,3.32-.81,7.69-.21,12.3.33,2.33.82,4.76,1.39,7.23s1.1,4.85,1.72,7.21c1.23,4.72,2.56,9.17,3.46,12.33s1.6,5.22,1.6,5.22l2.35-2.46c.36-.39.77-.79,1.18-1.25s.83-1,1.29-1.49l2.94-3.4,1.6-1.85c.55-.62,1-1.29,1.56-2,1-1.31,2.08-2.64,3.09-3.93l1.49-1.88c.47-.63.89-1.25,1.32-1.85l2.31-3.24a22.18,22.18,0,0,0,1.83-3.07,20,20,0,0,0,1.12-3.26,23.57,23.57,0,0,0,.72-6.61,40.5,40.5,0,0,0-3.31-13.1c-1.83-4.24-4-8.2-5.82-11.78-.87-1.77-1.79-3.52-2.45-5.13a18.65,18.65,0,0,1-1.34-4.54c-.11-.77-.2-1.5-.27-2.2s-.17-1.39-.25-2.05c-.14-1.31-.22-2.5-.25-3.6a29.45,29.45,0,0,1,.09-3.05c.08-.93.11-1.82.23-2.64a24.81,24.81,0,0,1,1-4.32c.19-.65.44-1.25.61-1.86l.52-1.8c.34-1.18.68-2.72,1-4.35.07-.41.16-.83.25-1.24l.16-1.28c.1-.84.21-1.69.31-2.49.18-1.6.34-3.05.46-4.1.06-.52.05-1,.07-1.25s0-.46,0-.46l-.29,1.14c-.21.77-.59,2-1.05,3.63-.22.84-.48,1.8-.78,2.89-.15.54-.27,1.13-.46,1.74s-.39,1.24-.59,1.91c-.42,1.34-.86,2.82-1.33,4.45-.13.41-.23.83-.38,1.25s-.3.85-.45,1.28c-.3.88-.61,1.79-.94,2.74a25.72,25.72,0,0,0-.75,2.72c-.08.44-.17.85-.26,1.24s-.16.79-.22,1.17a28.37,28.37,0,0,0-.29,4.33v2.1c0,.69-.08,1.39-.15,2.12a25.82,25.82,0,0,1-.93,4.78c-.14.47-.28.95-.47,1.43s-.43,1-.66,1.44c-.47,1-1,2-1.56,3q-.44.76-.87,1.56c-.29.52-.58,1.06-.93,1.57l-2,3.1c-.67,1-1.32,2.07-1.94,3.1s-1.31,2-1.89,2.93a31.93,31.93,0,0,0-1.52,2.86c-.21.46-.4.93-.59,1.37a13.11,13.11,0,0,0-.49,1.3"/><path class="cls-1" d="M399.35,299.52a18.05,18.05,0,0,0,.65,5.67c.13.51.27,1,.44,1.54s.3,1,.47,1.56c.34,1,.74,2.12,1.18,3.21.88,2.18,1.94,4.43,3.08,6.69s2.22,4.44,3.38,6.58,2.32,4.23,3.41,6.12,2.05,3.6,2.88,5c1.66,2.88,2.78,4.69,2.78,4.69l1.7-2.95.85-1.49.9-1.75c.63-1.23,1.33-2.59,2.05-4,1.52-2.8,2.87-6,4.23-9s2.44-5.83,3.31-8a21.71,21.71,0,0,0,1-3.43,18,18,0,0,0,.33-3.42,24.55,24.55,0,0,0-.9-6.59,21.45,21.45,0,0,0-1.15-3.16c-.45-1-1-2.06-1.51-3.05a53.16,53.16,0,0,0-3.69-5.72c-5.54-7.36-12.23-13.23-14.47-18.52-.59-1.45-1-2.76-1.47-4s-.83-2.38-1.13-3.45a29.69,29.69,0,0,1-.68-3c-.17-.93-.21-1.79-.34-2.62a41,41,0,0,1,.18-8.29c0-1.23,0-2.82-.11-4.49s-.19-3.45-.4-5.07-.42-3.06-.57-4.1-.3-1.7-.3-1.7-.06,1.48-.15,5c0,.87,0,1.88-.09,3s-.14,2.4-.21,3.82c0,.71-.06,1.44-.09,2.22,0,.39,0,.79,0,1.2,0,.2,0,.41,0,.62l-.06.63q-.24,2.55-.45,5.56a33.07,33.07,0,0,0,0,5.28,28.81,28.81,0,0,0,.78,4.28c.09.35.18.68.26,1s.13.68.2,1c.13.68.26,1.38.37,2.1a25.51,25.51,0,0,1,.28,4.87,56.68,56.68,0,0,1-3.44,13.33c-.41,1.16-.75,2.34-1.15,3.46s-.8,2.23-1.13,3.31a31.76,31.76,0,0,0-1.21,6"/><path class="cls-1" d="M408.89,260.77a18,18,0,0,0,2,5.36,40,40,0,0,0,3.5,5.62c.7,1,1.44,1.92,2.21,2.88s1.58,1.92,2.36,2.88c1.58,1.89,3.24,3.78,4.88,5.59s3.28,3.54,4.8,5.12,2.81,3,4,4.2c2.32,2.4,3.84,3.9,3.84,3.9l.93-3.28c.63-2,1.25-4.84,2-7.94.35-1.56.77-3.18,1.09-4.82s.59-3.31.88-4.92.57-3.16.81-4.6.35-2.79.5-3.94a21.92,21.92,0,0,0,.16-3.59,15.36,15.36,0,0,0-.44-3.39,24.49,24.49,0,0,0-2.5-6.2,30.4,30.4,0,0,0-1.81-2.8,29.68,29.68,0,0,0-2.2-2.6,54,54,0,0,0-5-4.69c-3.46-2.91-7.22-5.42-10.53-7.76-1.65-1.18-3.18-2.31-4.52-3.44a20.06,20.06,0,0,1-3.29-3.41c-3.65-5.05-5.56-8.71-6.64-11.84a50.83,50.83,0,0,1-1.78-8.08,64.74,64.74,0,0,0-2.75-9.11c-.59-1.52-1.12-2.87-1.55-3.84l-.66-1.58.22,1.15c.17.79.43,2,.8,3.7.72,3.41,1.91,8.77,3.12,16.73a27.69,27.69,0,0,0,3,9.11,29.63,29.63,0,0,1,3.18,8.51,34.15,34.15,0,0,1,.37,6.51c-.13,2.36-.36,4.86-.54,7.32,0,1.24-.23,2.46-.36,3.65s-.21,2.37-.26,3.49,0,2.21,0,3.23a17.29,17.29,0,0,0,.24,2.88"/><polygon class="cls-1" points="191.7 168.68 191.7 249.15 162.09 249.15 162.09 168.68 137.13 168.68 137.13 142.83 216.67 142.83 216.67 168.68 191.7 168.68"/><path class="cls-1" d="M230,142.7h29.6V249.15H230Zm-.12-29.27h29.67v20H229.84Z"/><path class="cls-1" d="M359.25,179.16c0,19.93-18.5,36-44.24,36H302.73v34H273.3V142.83h43.4c24.22,0,42.55,16.39,42.55,36.33m-56.52,14.17H313.5c11.1,0,16.31-6.05,16.31-13.14,0-5.76-4-11.51-14.8-11.51H302.73Z"/><path class="cls-1" d="M195.09,377l-50.9-31.87,73.68-2.59,26.4-79.92,26.37,79.95,71.5,2.56L293.49,377l30.35-25.73H264.41L244.27,294.5l-20.13,56.73H162.52s29.29,23,32.57,25.73"/><polygon class="cls-2" points="48.24 163.63 53.94 165.52 51.49 172.89 71.56 179.56 69.33 186.3 49.26 179.64 46.81 186.98 41.13 185.09 48.24 163.63"/><path class="cls-2" d="M52.07,150.32,47,147.72l2.57-5,5.09,2.61Zm3.43-6.71L50.4,141,53,136l5.1,2.6Zm19.28,20.67c-2.86,1-6.18.61-10-1.33l-13.46-6.87,3.24-6.34,13.83,7.06q5.45,2.79,7.7-1.63T72.92,148L59.09,140.9l3.27-6.4,13.45,6.87c8,4.07,8.8,10.58,5.75,16.57a12.15,12.15,0,0,1-6.78,6.34"/><path class="cls-2" d="M103.19,123.45,98.38,130,89,127.65l-2.2,3L94,136l-4.13,5.64L68,125.57l6.7-9.16c4.18-5.71,8.4-7,13.52-3.3q4.61,3.38,3.88,8Zm-26.25,0,5,3.66,2.9-4c1.12-1.51.82-2.87-.85-4.1s-3-1-4.16.48Z"/><polygon class="cls-2" points="116.86 109.32 105 105.84 105.79 109.06 111.5 114.73 106.6 119.67 87.33 100.55 92.23 95.61 99.63 102.95 97.21 90.58 103.42 84.34 104.86 99.04 122.71 103.42 116.86 109.32"/><path class="cls-2" d="M107.12,77.85l-3.3-4.1,6.26-5,3.3,4.1Zm19.16,23-17-21.14,5.54-4.46,17,21.14Z"/><polygon class="cls-2" points="134.04 61.92 140.16 57.99 142.78 77.57 147.79 85.37 141.78 89.23 136.76 81.43 120.04 70.93 126.41 66.83 136.23 73.92 134.04 61.92"/><polygon class="cls-2" points="165.62 45.92 168.09 51.34 155.84 56.92 157.65 60.88 169.02 55.7 171.54 61.23 160.17 66.41 162.15 70.75 174.64 65.05 177.12 70.51 158.16 79.15 146.91 54.45 165.62 45.92"/><path class="cls-2" d="M204.06,32.14l-.86-5.2,7.93-1.32.86,5.2Zm5.37,29.47L205,34.83l7-1.16,4.45,26.78Z"/><path class="cls-2" d="M234.09,59.26,234,60a3,3,0,0,1,2,1.08,4.15,4.15,0,0,1,.95,2.56c.13,2.15-1.63,4.22-4.59,4.39a4.85,4.85,0,0,1-3.6-.94l.56-3c.25.34.8.46,1.6.41s1-.36,1-.94c-.05-.81-1-.9-1.21-.89a7.08,7.08,0,0,0-1.34.16l-.14-1.81.13-1.58a16.23,16.23,0,0,1-8.19-2.53l2.07-5.4a16.43,16.43,0,0,0,8.35,1.87c2.5-.15,3.73-.88,3.64-2.18-.1-1.15-1-1.72-2.39-2.09a19.16,19.16,0,0,0-2.3-.45c-.54-.08-.93-.14-1.2-.2a14.15,14.15,0,0,1-5.71-2.17,7,7,0,0,1-3-5.79c-.17-3,.73-5.24,2.76-6.79a13.69,13.69,0,0,1,7.78-2.61,18.94,18.94,0,0,1,10.17,2.06l-2,5.47a18.61,18.61,0,0,0-8-1.42c-2.38.14-3.52.94-3.44,2.36.06,1,.86,1.53,2.39,1.9.85.22,1.28.31,2.49.55.58.12,1.09.2,1.52.3a14.34,14.34,0,0,1,4.25,1.44,9.3,9.3,0,0,1,1.92,1.39,8.39,8.39,0,0,1,2,5.08c.3,5.1-3.07,8.19-8.37,9"/><path class="cls-2" d="M267.39,51.6l3.32,4.53A13.77,13.77,0,0,1,261.4,60l-.27.9a3,3,0,0,1,1.81,1.35,4.13,4.13,0,0,1,.58,2.68c-.17,2.14-2.22,3.94-5.17,3.69a4.84,4.84,0,0,1-3.43-1.45l1-2.85c.2.37.73.56,1.53.63.65.06,1-.22,1.07-.8.06-.8-.88-1-1.07-1a7.09,7.09,0,0,0-1.35,0l.12-1.81.47-2a12.26,12.26,0,0,1-6.61-5.3,14.86,14.86,0,0,1-2-9.31,14.38,14.38,0,0,1,5-10.23,13.31,13.31,0,0,1,9.3-2.77,13.7,13.7,0,0,1,9.95,5.59l-4,3.95c-1.79-2.08-3.71-3.21-5.66-3.37a5.93,5.93,0,0,0-4.9,1.78,8.75,8.75,0,0,0-2.37,5.75,8.64,8.64,0,0,0,1.35,6,5.68,5.68,0,0,0,4.41,2.57c2,.17,4.07-.63,6.18-2.34"/><path class="cls-2" d="M274.9,61.35l5.28-26.63,7,1.37-5.28,26.64Zm5.37-29.48,1-5.16,7.89,1.56-1,5.17Z"/><path class="cls-2" d="M336.3,53.39c6.07,3,7.77,7.44,5.1,12.85q-4.14,8.39-13.89,3.56l-3.31-1.63-3.78,7.65L314,72.67l12-24.33Zm-5.93,11.14c2.07,1,3.29.63,4.38-1.57s.6-3.39-1.5-4.43l-3.45-1.7-2.95,6Z"/><path class="cls-2" d="M350,93.27l1.68-5.19L345,83.57,340.78,87l-6.22-4.26,22.95-17.19,6.63,4.55L356.42,97.7Zm-.74-13.7,4.57,3.13,3-9.22Z"/><path class="cls-2" d="M375.91,115.86,370,110.28l3.5-9-2.72-2.56-6.13,6.53-5.11-4.79,18.58-19.79,8.27,7.77c5.16,4.84,6,9.19,1.64,13.82q-3.92,4.15-8.4,2.87Zm3.21-26-4.24,4.51,3.59,3.37c1.37,1.29,2.76,1.16,4.18-.35s1.4-2.9,0-4.19Z"/><polygon class="cls-2" points="413.4 119.02 408.71 122.76 403.87 116.69 387.33 129.88 382.9 124.31 399.43 111.13 394.61 105.08 399.3 101.35 413.4 119.02"/><path class="cls-2" d="M394.47,139.86l22.9-14.58,3.82,6-22.9,14.58Zm25-16.48,4.44-2.83,4.32,6.78-4.45,2.83Z"/><path class="cls-2" d="M403.52,149.09l5.78-.19a16.28,16.28,0,0,0,1.53,8.42c1.1,2.24,2.25,3.09,3.42,2.51,1-.54,1.2-1.57,1-3a19.15,19.15,0,0,0-.49-2.29c-.13-.53-.23-.91-.28-1.19a14.09,14.09,0,0,1-.21-6.1,7,7,0,0,1,4.18-5c2.66-1.31,5.12-1.36,7.33-.09a13.75,13.75,0,0,1,5.43,6.15,19,19,0,0,1,2.05,10.18l-5.8.32a18.74,18.74,0,0,0-1.8-7.93c-1.05-2.14-2.24-2.89-3.51-2.26-.9.44-1.08,1.38-.83,2.93.13.88.21,1.31.47,2.52.11.58.23,1.08.31,1.51a14.17,14.17,0,0,1,.32,4.47,9.09,9.09,0,0,1-.53,2.32,8.38,8.38,0,0,1-3.91,3.81,7.33,7.33,0,0,1-7.14.13,13.39,13.39,0,0,1-5.4-6.08,19.08,19.08,0,0,1-1.92-11.14"/><path class="cls-2" d="M412.63,175l25.52-9.23,2.42,6.69-25.52,9.23Zm28-10.62,5-1.79,2.73,7.55-4.95,1.8Z"/></g></g></svg>